<?xml version="1.0" encoding="utf-8"?>
<svg version="1.0" id="Layer_1" xmlns="http://www.w3.org/2000/svg" xmlns:xlink="http://www.w3.org/1999/xlink" x="0px" y="0px"
	 viewBox="0 0 5333 4000" enable-background="new 0 0 5333 4000" xml:space="preserve">
<g id="_2031870482304">
	<g>
		<path fill="#DBF1FF" d="M2674.8,158.7c1422.5,0,2575.7,1153.2,2575.7,2575.8c0,315.7-56.8,618-160.8,897.5H259.9
			c-103.8-279.5-160.8-581.9-160.8-897.5C99.1,1311.9,1252.3,158.7,2674.8,158.7L2674.8,158.7L2674.8,158.7z"/>
		<g>
			<path fill="#FFFFFF" d="M2132.3,294.9c292.8,85.1,538.6,311.1,635,624.3c96.5,313.2,20.6,638.3-173.6,873.5
				c-292.8-85.1-538.5-311.1-635-624.3C1862.4,855.2,1938.2,530.1,2132.3,294.9L2132.3,294.9z"/>
			<path fill="#DBF1FF" d="M2181.5,474.7c-0.9-3.1,0.8-6.4,4-7.4c3.1-0.9,6.5,0.8,7.4,3.9l62.8,203.7l96.7-182.9
				c1.6-2.9,5.1-4,8.1-2.5c3,1.6,4.1,5.1,2.5,8.1L2260.7,691l135.6,439.7l135.1-255.4c1.5-2.9,5.1-4.1,8.1-2.5
				c2.9,1.5,4,5.1,2.5,8.1l-140.7,266l118.3,383.8l96.7-182.8c1.5-3,5.1-4.1,8.1-2.5c2.9,1.5,4,5.1,2.5,8.1l-102.3,193.4l31.4,101.8
				c0.9,3.1-0.8,6.5-3.9,7.4c-3.1,0.9-6.4-0.8-7.4-3.9l-31.4-101.9L2319.9,1448c-2.9-1.5-4-5.1-2.5-8.1c1.5-2.9,5.1-4,8.1-2.5
				l182.9,96.7L2390,1150.4l-266-140.7c-2.9-1.6-4-5.1-2.5-8.1c1.6-2.8,5.1-4.1,8.1-2.5l255.4,135.1l-135.5-439.7l-193.4-102.3
				c-3-1.5-4.1-5.1-2.5-8.1c1.5-2.9,5.1-4,8.1-2.5l182.8,96.7L2181.5,474.7L2181.5,474.7L2181.5,474.7z"/>
		</g>
		<g>
			<path fill="#FFFFFF" d="M3739.8,519.4c-299.1-59.1-621.2,28.6-851,262.4c-229.8,233.7-311.8,557.4-247.5,855.5
				c299.1,59.1,621.2-28.7,851-262.4C3722,1141.1,3804.1,817.5,3739.8,519.4L3739.8,519.4L3739.8,519.4z"/>
			<path fill="#DBF1FF" d="M3613.5,656.4c2.2-2.3,2.2-6.1,0-8.4c-2.3-2.2-6.1-2.2-8.4,0.1l-149.4,152l-1.8-206.9
				c0-3.2-2.7-5.9-6.1-5.9c-3.2,0.1-5.9,2.7-5.9,6.1l1.9,218.7l-322.4,328.2l-2.5-288.9c0-3.2-2.7-6-6-5.9c-3.2,0-5.9,2.7-5.9,6
				l2.7,300.9l-281.5,286.5l-1.8-206.8c-0.1-3.3-2.7-6-6-5.9c-3.3,0-6,2.7-5.9,6l1.9,218.7l-74.7,76c-2.2,2.3-2.2,6.1,0.1,8.4
				c2.4,2.3,6.1,2.2,8.5,0l74.7-76l218.7-1.9c3.3,0.1,6-2.7,5.9-6c0-3.2-2.7-5.9-6-5.9l-206.8,1.8l281.5-286.5l300.9-2.7
				c3.3-0.1,5.9-2.7,5.9-6c0-3.2-2.7-6-6-5.9l-288.9,2.5l322.4-328.2l218.7-1.9c3.2,0,5.9-2.7,5.9-6c0-3.2-2.7-5.9-6.1-5.9
				l-206.9,1.8L3613.5,656.4L3613.5,656.4L3613.5,656.4z"/>
		</g>
		<g>
			<path fill="#BAE3FF" d="M290.9,1577.7c207,17.5,401.4,135.6,507.9,331.8c106.4,196.3,99.4,423.6,1.2,606.7
				c-207-17.5-401.4-135.6-507.8-331.8C185.6,1988,192.7,1760.7,290.9,1577.7z"/>
			<path fill="#FFFFFF" d="M347.8,1691.1c-1.1-2-0.3-4.5,1.6-5.5c2-1.1,4.5-0.3,5.5,1.6l69.3,127.7l40.1-135.1
				c0.6-2.2,2.9-3.4,5-2.7c2.2,0.6,3.4,2.9,2.7,5L429.7,1825l149.4,275.5l56-188.7c0.7-2.1,2.9-3.4,5-2.7c2.1,0.7,3.4,2.9,2.7,5.1
				l-58.3,196.5L715,2351.2l40.1-135.1c0.7-2.1,2.9-3.4,5-2.7s3.4,2.9,2.7,5.1l-42.4,142.9l34.6,63.9c1.1,2,0.3,4.5-1.6,5.5
				c-2,1.1-4.5,0.3-5.5-1.6l-34.6-63.9l-142.9-42.4c-2.1-0.7-3.4-2.9-2.7-5.1c0.6-2.2,2.9-3.4,5-2.7l135.1,40.1l-130.4-240.5
				l-196.5-58.3c-2.2-0.6-3.4-2.9-2.7-5c0.7-2.1,2.9-3.4,5-2.7l188.7,56l-149.3-275.5l-142.9-42.4c-2.2-0.6-3.4-2.9-2.7-5
				c0.6-2.2,2.9-3.4,5-2.7l135.1,40.1L347.8,1691.1L347.8,1691.1L347.8,1691.1z"/>
		</g>
		<g>
			<path fill="#BAE3FF" d="M5244.4,1962.7c-220.7-99.2-485.4-89.1-704.7,50.5c-219.4,139.6-340.7,375-344.4,616.9
				c220.7,99.2,485.4,89.1,704.7-50.5C5119.5,2440,5240.8,2204.5,5244.4,1962.7z"/>
			<path fill="#FFFFFF" d="M5122.3,2046c2.2-1.4,2.9-4.4,1.5-6.5c-1.4-2.2-4.4-2.9-6.5-1.5l-142.7,90.8l35.7-160.2
				c0.5-2.5-1-5.1-3.6-5.6c-2.5-0.6-5.1,1-5.6,3.6l-37.7,169.5l-308,195.9l49.7-223.7c0.5-2.5-1.1-5.1-3.6-5.6s-5.1,1-5.6,3.6
				l-51.8,233l-268.9,171l35.6-160.2c0.5-2.5-1.1-5.1-3.6-5.6s-5.1,1.1-5.6,3.6l-37.7,169.4l-71.4,45.4c-2.2,1.4-2.9,4.4-1.5,6.6
				s4.4,2.8,6.6,1.5l71.4-45.4l169.4,37.7c2.5,0.5,5.1-1.1,5.6-3.6s-1.1-5.1-3.6-5.6l-160.2-35.6l268.9-171.1l233,51.8
				c2.5,0.6,5.1-1,5.6-3.5s-1.1-5.1-3.6-5.6l-223.8-49.7l308-195.9l169.4,37.7c2.5,0.6,5.1-1,5.6-3.5s-1-5.1-3.6-5.6l-160.2-35.6
				L5122.3,2046L5122.3,2046z"/>
		</g>
		<path fill="#8AD0FF" d="M503.3,3354.8c723.6-101.7,1447.5-163,2171.1-163.1s1448,61.1,2172,163.1c0-417.4,0-835.1,0-1252.5
			s0-835.3,0-1253c-724,102-1448.3,163.5-2172,163.6S1226.8,951.5,503.3,849.3c0,417.7,0,835.6,0,1253S503.3,2937.4,503.3,3354.8
			L503.3,3354.8z"/>
		<path fill="#4B9ED6" d="M2130.4,1001.7c-418.1-17-836.3-52.8-1254.3-103.5v622.9c0,28,22.9,50.9,50.9,50.9
			c541.4,0,611.1,0,1152.5,0c28,0,50.9-22.9,50.9-50.9V1001.7L2130.4,1001.7z"/>
		<path fill="#4B9ED6" d="M4000.7,948.7c-207.3,19.3-414.7,34.6-622,45.4c-0.2,1.8-0.3,3.7-0.3,5.5v697.2c0,28,22.9,50.9,50.9,50.9
			c541.4,0,611.1,0,1152.6,0c28,0,50.9-22.9,50.9-50.9V999.6c0-28-22.9-50.9-50.9-50.9L4000.7,948.7L4000.7,948.7z"/>
		<path fill="#4B9ED6" d="M4240.4,2845.8c28,0,50.9,22.9,50.9,50.9V3285c-418.2-46.1-836.3-76.8-1254.3-88.3v-300
			c0-28,22.9-50.9,50.9-50.9C3629.3,2845.8,3699,2845.8,4240.4,2845.8z"/>
		<path fill="#4B9ED6" d="M2316.7,2191.1c28,0,50.9,22.9,50.9,50.9v697.2c0,28-22.9,50.9-50.9,50.9c-541.4,0-611.1,0-1152.5,0
			c-28,0-50.9-22.9-50.9-50.9V2242c0-28,22.9-50.9,50.9-50.9C1705.6,2191.1,1775.3,2191.1,2316.7,2191.1z"/>
		<path fill="#DBF1FF" d="M3440.5,3007.3c-26.1-1-46.9-18-46.9-38.6c0-20.3,20.8-36.3,46.9-35.3c212.4,8.5,424.8,19.8,637.1,34.3
			c25.6,1.8,46.9,20.8,46.9,42.1c0,21.6-21.3,36.8-46.9,34.8C3865.2,3029.1,3652.9,3016.6,3440.5,3007.3z M1101.7,1390.5
			c-25.6-1.8-46.9-20.8-46.9-42.6c0-21.8,21.3-37.6,46.9-35.6c99.5,7.5,198.9,14.3,298.8,20.6c26.1,1.5,47.4,19.8,47.4,40.8
			c0,20.8-21.3,36.8-47.4,35.3C1300.7,1403.5,1201.2,1397.2,1101.7,1390.5L1101.7,1390.5z M2467.2,1436.3
			c-26.1,0-46.9-16.3-46.9-36.6c0-20.3,20.8-36.6,46.9-36.6c305.7,0,611.5-1,917.2-6.5c26.1-0.7,46.9,15,46.9,35.6
			s-20.8,37.6-46.9,38.3C3078.7,1435.3,2773,1436.3,2467.2,1436.3L2467.2,1436.3z M3691.5,1420.5c-26,1.3-46.9-14.8-46.9-35.3
			c0-20.8,20.9-38.1,46.9-39.6c138.1-6.5,276.7-14.3,415.2-23.3c26.1-1.7,46.9,14,46.9,35.6c0,21.3-20.8,40.1-46.9,41.6
			C3968.2,1407.8,3829.6,1414.8,3691.5,1420.5z M1101.7,1223.6c-25.6-2.3-46.9-21.8-46.9-43.6c0-21.5,21.3-37.1,46.9-34.6
			c129.9,11.5,260.1,22.1,390.4,31.1c26.1,1.5,46.9,19.8,46.9,40.6c0,20.8-20.8,36.6-46.9,35.1
			C1361.9,1243.9,1231.6,1234.1,1101.7,1223.6z M1824,1268.2c-26.1-1-46.9-18.5-46.9-39.1c0-20.5,20.8-36.1,46.9-35.1
			c278,9,555.9,12.8,834.3,12.8c26.1,0,46.9,16.5,46.9,36.8c0,20-20.8,36.6-46.9,36.6C2379.9,1280,2102,1276.5,1824,1268.2
			L1824,1268.2z M4218.8,1225.6c-26.1,2.3-47.3-13.3-47.3-34.6c0-21.5,21.3-41.1,47.3-43.3c88.2-8.5,176.8-17.5,265.4-27.6
			c26-2.8,46.9,12.5,46.9,34.8s-20.9,42.8-46.9,45.6C4395.5,1209.6,4306.9,1217.8,4218.8,1225.6L4218.8,1225.6z M1338.4,1732.2
			c-25.6-0.8-46.9-18.5-46.9-39.9c0-21.3,21.3-37.6,46.9-36.8c233.2,7.5,466.4,13.3,699.7,17c25.6,0.5,46.9,17,46.9,37.6
			c0,20.3-21.3,36.6-46.9,36.1C1804.9,1743.3,1571.7,1738.5,1338.4,1732.2L1338.4,1732.2z M2436.4,1748.5
			c-26.1,0-47.3-16.3-47.3-36.6c0-20.3,21.3-36.6,47.3-36.6c196.3,0,392.6,0,588.9-0.5c26.1,0,47.4,16.3,47.4,36.6
			c0,20.3-21.3,36.6-47.4,36.8C2829,1748.5,2632.7,1748.5,2436.4,1748.5L2436.4,1748.5z M4237.4,1724.2c-26.1,1-46.9-15.5-46.9-37.1
			c0-21.5,20.8-39.8,46.9-41.1c82.1-3.8,164.2-7.8,246.7-12c26-1.5,47.3,15.3,47.3,37.6c0,22.3-21.3,41.3-47.3,42.6
			C4401.6,1717.7,4319.5,1721.2,4237.4,1724.2L4237.4,1724.2z M1338.4,1895.6c-25.6-0.2-46.9-17.8-46.9-39.1
			c0-21.1,21.3-38.1,46.9-37.3c116,2.5,232.4,4.8,348.8,6.5c26,0.5,46.9,17.8,46.9,38.1c0,20.5-20.9,37.1-46.9,36.8
			C1570.8,1899.1,1454.4,1897.6,1338.4,1895.6L1338.4,1895.6z M1944.3,1903.1c-25.6-0.2-46.9-17-46.9-37.6
			c0-20.3,21.3-36.6,46.9-36.3c239.7,1.7,479.9,2.5,719.7,2.5c239.7,0,480.3-1,720.5-2.7c26.1-0.2,47.3,16.3,47.3,36.6
			c0,20.5-21.3,37.1-47.3,37.3c-240.2,1.2-480.8,2-720.5,2C2424.2,1904.9,2184,1904.4,1944.3,1903.1L1944.3,1903.1z M3695.9,1899.8
			c-26.1,0.5-47.3-16-47.3-36.8c0-20.3,21.3-37.6,47.3-38.1c136.8-2.3,273.6-5.3,410.9-8.5c26.1-0.5,46.9,16.3,46.9,37.6
			c0,21.6-20.8,39.3-46.9,39.6C3969.5,1896.1,3832.7,1898.1,3695.9,1899.8z M1338.4,2059.2c-25.6-0.2-46.9-17.5-46.9-38.6
			c0-21.3,21.3-38.3,46.9-38.1c254.5,2.3,509,3.8,763.9,4.8c25.6,0,46.9,16.5,46.9,36.8s-21.3,36.8-46.9,36.8
			C1847.5,2060.4,1592.9,2059.9,1338.4,2059.2z M3197.7,2060.7c-26.1,0-46.9-16.3-46.9-36.6c0-20.3,20.8-36.8,46.9-36.8
			c253.2-1,506.4-2.5,759.6-4.5c26.1-0.2,46.9,16.5,46.9,37.8s-20.8,38.3-46.9,38.3C3704.1,2059.7,3450.9,2060.2,3197.7,2060.7z
			 M1338.4,2222.6c-25.6,0.2-46.9-16.8-46.9-38.1s21.3-38.3,46.9-38.6c299.2-0.7,598.9-1.5,898.6-1.7c26.1,0,47.3,16.5,47.3,36.8
			c0,20.1-21.3,36.3-47.3,36.6C1937.3,2218.3,1637.7,2220,1338.4,2222.6L1338.4,2222.6z M2813.8,2217.3c-26.1,0-46.9-16.3-46.9-36.6
			s20.8-36.6,46.9-36.6c145-0.2,290.1-0.2,435.6-0.2c26.1,0,47.4,16.5,47.4,36.8c0,20.6-21.3,36.8-47.4,36.8
			C3103.9,2217.3,2958.8,2217.1,2813.8,2217.3z M3573.4,2218.8c-26.1,0-46.9-16.8-46.9-37.3s20.8-37.1,46.9-37.1
			c235,0.7,469.9,1.5,705.3,2.5c26.1,0,47.4,17.8,47.4,39.6s-21.3,39.1-47.4,38.8C4043.3,2222.6,3808.3,2220.6,3573.4,2218.8z
			 M1101.7,2558.8c-25.6,1.2-46.9-15.3-46.9-37.1s21.3-40.1,46.9-41.1c45.6-1.5,91.2-3.3,137.2-4.8c26.1-1,46.9,15.8,46.9,37.1
			s-20.8,39.1-46.9,40.1C1193,2554.8,1147.3,2557,1101.7,2558.8z M1401,2547c-26.1,1-47.4-15.5-47.4-36.6
			c0-21.3,21.3-38.8,47.4-39.6c204.5-5.3,409.1-9.3,614.1-12.3c26.1-0.2,46.9,16,46.9,36.3s-20.8,37.1-46.9,37.6
			C1810.1,2535.8,1605.5,2540.8,1401,2547z M2272.2,2530c-26.1,0.2-46.9-16-46.9-36.3s20.8-36.8,46.9-37.1c238-0.2,476-0.2,714-0.5
			c26.1,0,46.9,16.5,46.9,36.8s-20.8,36.6-46.9,36.3C2748.2,2529.5,2510.2,2529.5,2272.2,2530L2272.2,2530z M3197.7,2530.5
			c-26.1,0-46.9-16.5-46.9-36.8s20.8-36.6,46.9-36.6c192,2,384.4,5,576.8,9c26.1,0.5,47.3,18,47.3,38.8s-21.3,37.1-47.3,36.3
			C3582.1,2536.5,3389.7,2533,3197.7,2530.5z M1101.7,2725.9c-25.6,1.5-46.9-14.8-46.9-36.6c0-21.5,21.3-40.3,46.9-41.8
			c135.1-6.8,270.1-12.8,405.2-18c26.1-1,46.9,15,46.9,35.8s-20.8,38.6-46.9,39.8C1371.9,2711.1,1236.8,2717.9,1101.7,2725.9
			L1101.7,2725.9z M1655.5,2699.1c-26.1,1-46.9-14.8-46.9-35.6s20.8-38.3,46.9-39.1c149-4.3,297.9-7.5,446.9-9.8
			c25.6-0.2,46.9,15.8,46.9,36.1s-21.3,37.3-46.9,37.6C1953.4,2690.8,1804.5,2694.6,1655.5,2699.1L1655.5,2699.1L1655.5,2699.1z
			 M2662.2,2685.6c-25.6,0-46.9-16.3-46.9-36.6s21.3-36.6,46.9-36.6c192,0,384.4,0.2,576.8,2c26.1,0.2,47.3,17,47.3,37.3
			s-21.3,36.6-47.3,36.1C3046.6,2685.8,2854.2,2685.6,2662.2,2685.6L2662.2,2685.6z M3641.6,2697.3c-25.6-1-46.9-18-46.9-38.8
			c0-20.6,21.3-36.6,46.9-36.1c192.4,6.3,384.8,14,577.2,23.6c26.1,1.3,46.9,19.8,46.9,41.3c0,21.8-20.8,38.1-46.9,36.6
			C4026.4,2713.1,3834,2704.4,3641.6,2697.3z M1101.7,2892.8c-25.6,2-46.9-13.8-46.9-35.6s21.3-40.8,46.9-42.6
			c59.5-4,119-8,178.9-11.8c25.6-1.5,46.9,14.3,46.9,35.6s-21.3,39.8-46.9,41.3C1220.7,2884,1161.2,2888.3,1101.7,2892.8z
			 M1699.8,2857.2c-26.1,1-47.4-14.8-47.4-35.3c0-20.8,21.3-38.6,47.4-39.4c91.2-3.2,182.4-6,273.6-8.3c26-0.7,47.3,15.3,47.3,35.8
			c0,20.3-21.3,37.3-47.3,37.8C1882.2,2850.7,1791,2853.7,1699.8,2857.2z M2361.7,2842.2c-26.1,0-47.4-16-47.4-36.3
			s21.3-36.8,47.4-37.1c168.5,0,337.5,0,506.4,0c25.6,0,46.9,16.3,46.9,36.6s-21.3,36.6-46.9,36.6
			C2699.1,2841.9,2530.2,2841.9,2361.7,2842.2z M3135.6,2843.2c-26.1-0.2-47.4-16.8-47.4-37.1s21.3-36.6,47.4-36.3
			c241.9,4.3,483.8,11.3,726.2,21.6c26.1,1.2,46.9,19.3,46.9,40.3c0,21.1-20.8,36.8-46.9,35.6
			C3619.4,2855.7,3377.5,2847.7,3135.6,2843.2z M1101.7,3059.7c-25.6,2.5-46.9-13-46.9-34.8c0-21.6,21.3-41.1,46.9-43.3
			c198.9-15.8,398.3-29.1,597.6-39.6c26.1-1,47.4,14.5,47.4,35.3c0,20.5-21.3,38.1-47.4,39.3
			C1500,3028.1,1300.7,3042.4,1101.7,3059.7z"/>
		<path fill="#FFFFFF" d="M1703.7,2378.9c-26.1,0.5-46.9-16-46.9-36.6c0-20.8,20.8-37.8,46.9-38.1c317.9-2.8,636.3-4,954.6-4
			c26.1,0,46.9,16.3,46.9,36.6c0,20.1-20.8,36.6-46.9,36.6C2340,2373.6,2021.6,2375.1,1703.7,2378.9L1703.7,2378.9L1703.7,2378.9z
			 M865.1,3004.3c25.6-2.5,46.9,13.3,46.9,35.3s-21.3,42.1-46.9,45.1c-26.1,2.8-47.4-12.5-47.4-34.8
			C817.7,3027.6,839,3007,865.1,3004.3z M865.1,1120.4c25.6,3,46.9,23.1,46.9,45.1s-21.3,37.8-46.9,35.3
			c-26.1-2.8-47.4-23.3-47.4-45.6C817.7,1132.9,839,1117.6,865.1,1120.4z M865.1,1291.8c25.6,2.3,46.9,22.1,46.9,44.1
			s-21.3,38.3-46.9,36.1c-26.1-2-47.4-22.1-47.4-44.4C817.7,1305.3,839,1289.3,865.1,1291.8z M865.1,1462.9
			c25.6,1.8,46.9,21.3,46.9,43.1c0,22.3-21.3,39.1-46.9,37.3c-26.1-1.5-47.4-21.3-47.4-43.8C817.7,1477.4,839,1460.9,865.1,1462.9
			L865.1,1462.9z M865.1,1634.3c25.6,1.5,46.9,20.3,46.9,42.6c0,22.1-21.3,38.8-46.9,37.8c-26.1-1.2-47.4-20.3-47.4-42.6
			C817.7,1649.5,839,1633,865.1,1634.3z M865.1,1805.4c25.6,1,46.9,19.5,46.9,41.6s-21.3,39.3-46.9,38.8
			c-26.1-0.7-47.4-19.3-47.4-41.6C817.7,1821.9,839,1804.6,865.1,1805.4z M865.1,1976.8c25.6,0.2,46.9,18.5,46.9,40.6
			s-21.3,39.8-46.9,39.6c-26.1,0-47.4-18.3-47.4-40.6S839,1976.3,865.1,1976.8z M865.1,2148.1c25.6-0.2,46.9,17.5,46.9,39.6
			s-21.3,40.3-46.9,40.6c-26.1,0.5-47.4-17.3-47.4-39.6C817.7,2166.4,839,2148.1,865.1,2148.1z M865.1,2319.3
			c25.6-0.5,46.9,16.8,46.9,38.8c0,21.8-21.3,40.6-46.9,41.6c-26.1,0.7-47.4-16.5-47.4-38.8C817.7,2338.6,839,2320,865.1,2319.3z
			 M865.1,2490.4c25.6-1,46.9,15.8,46.9,37.8c0,22.3-21.3,41.1-46.9,42.6c-26.1,1.2-47.4-15.5-47.4-37.8S839,2491.6,865.1,2490.4z
			 M865.1,2661.8c25.6-1.7,46.9,14.8,46.9,37.1c0,22-21.3,41.3-46.9,43.1c-26.1,2-47.4-14.3-47.4-36.6
			C817.7,2682.8,839,2663.3,865.1,2661.8z M865.1,2833.1c25.6-2.2,46.9,13.8,46.9,36.1c0,22-21.3,41.8-46.9,44.1
			c-26.1,2.5-47.4-13.5-47.4-35.8S839,2835.2,865.1,2833.1z M1101.7,1557.6c-25.6-1.5-46.9-20.6-46.9-42.1
			c0-21.6,21.3-38.1,46.9-36.6c226.3,13,452.6,23.1,678.8,30.6c26.1,0.7,46.9,18,46.9,38.6c0,20.5-20.8,36.8-46.9,36.1
			C1554.3,1577.4,1328,1568.6,1101.7,1557.6z M2015.1,1589.2c-26.1-0.5-47.3-17.5-47.3-38.1c0-20.3,21.3-36.6,47.3-35.8
			c289.3,3.5,578.5,4,868.2,4c26.1-0.2,47.4,16.3,47.4,36.3c0,20.3-21.3,36.8-47.4,37.1C2593.6,1592.7,2304.3,1592.2,2015.1,1589.2z
			 M1101.7,2392.2c-25.6,0.7-46.9-16.5-46.9-38.1c0-21.8,21.3-39.6,46.9-40.3c114.7-2.3,229.8-4.3,344.9-6
			c25.6-0.5,46.9,16,46.9,37.1c0,20.8-21.3,38.3-46.9,38.8C1331.5,2386.2,1216.4,2388.9,1101.7,2392.2L1101.7,2392.2z"/>
		<path fill="#ADDEFF" d="M3077.4,1279c-26.1,0.2-46.9-15.8-46.9-36.1c0-20.3,20.8-37.1,46.9-37.3c278-5.8,555.9-16.5,834.3-32.8
			c25.6-2,46.9,13.5,46.9,34.6s-21.3,39.6-46.9,41.3C3633.3,1263.7,3355.4,1273.7,3077.4,1279z M1658.1,1421
			c-26.1-1.2-46.9-18.8-46.9-39.6c0-20.8,20.8-36.6,46.9-35.3c198.9,7.5,398.3,13,597.6,16c26.1,0.2,46.9,16.8,46.9,37.1
			c0,20.3-20.8,36.3-46.9,36.1C2056.3,1432.6,1857,1427.8,1658.1,1421L1658.1,1421z M3249.4,1746.7c-25.6,0.2-46.9-16-46.9-36.3
			s21.3-37.1,46.9-37.3c196.3-2.5,392.6-6.5,589.4-11.8c26.1-1,47.3,15.3,47.3,36.3s-21.3,38.3-47.3,39.1
			C3642,1741.2,3445.7,1744.5,3249.4,1746.7z M2409,2060.9c-25.6,0-46.9-16.3-46.9-36.6c0-20.3,21.3-36.6,46.9-36.6
			c192.4,0,384.8,0,577.2-0.3c26.1,0,46.9,16.5,46.9,36.8c0,20-20.8,36.3-46.9,36.3C2793.8,2060.9,2601.4,2060.9,2409,2060.9
			L2409,2060.9z M4023.8,2549.5c-26.1-1-47.4-18.8-47.4-39.8s21.3-37.8,47.4-36.8c153.3,5,306.6,10.8,460.4,17.5
			c26,1,46.9,20,46.9,42.3s-20.9,39.1-46.9,37.8C4330.4,2562.6,4177.1,2555.8,4023.8,2549.5z M2050.3,3003.3
			c-26.1,0.8-46.9-15-46.9-35.3c0-20.5,20.8-37.6,46.9-38.3c288.4-4.3,576.8-4.8,865.1-4.8c26.1,0,47.4,16.3,47.4,36.6
			s-21.3,36.6-47.4,36.6C2627,2998,2338.7,2998.5,2050.3,3003.3L2050.3,3003.3z M4121,2883.3c-26-1.5-46.9-20.5-46.9-41.8
			s20.8-36.8,46.9-35.6c120.7,8.3,241.9,17,363.1,27.1c26,2,47.3,22.1,47.3,44.4s-21.3,38.3-47.3,36.1
			C4362.9,2902.3,4241.8,2892.3,4121,2883.3z"/>
		<g>
			<path fill="#FFFFFF" d="M1951.2,600.7c28,0,50.9,22.9,50.9,50.9v697.2c0,28-22.9,50.9-50.9,50.9c-541.4,0-611.1,0-1152.6,0
				c-28,0-50.9-22.9-50.9-50.9V651.6c0-28,22.9-50.9,50.9-50.9C1340,600.7,1409.7,600.7,1951.2,600.7z"/>
			<path fill="#4B9ED6" d="M798.6,600.7c-28,0-50.9,22.9-50.9,50.9v111.8c575.4,0,679,0,1254.3,0V651.6c0-28-22.9-50.9-50.9-50.9
				C1409.7,600.7,1340,600.7,798.6,600.7L798.6,600.7z"/>
			<path fill="#FFFFFF" d="M1700.1,649.3c21.6,0,43.1,0,64.6,0c43.3,0,43.3,65.5,0,65.5c-21.5,0-43.1,0-64.6,0
				C1656.7,714.8,1656.7,649.3,1700.1,649.3z M1848,649.3h64.6c43.3,0,43.3,65.5,0,65.5H1848C1804.7,714.8,1804.7,649.3,1848,649.3z
				 M1555.2,649.3h64.6c43.3,0,43.3,65.5,0,65.5h-64.6C1511.9,714.8,1511.9,649.3,1555.2,649.3z"/>
			<path fill="#8AD0FF" d="M1234.5,1199.7h280.8c34.6,0,62.7,28.1,62.7,62.7l0,0c0,34.6-28.1,62.7-62.7,62.7h-280.8
				c-34.6,0-62.7-28.1-62.7-62.7l0,0C1171.8,1227.8,1199.8,1199.7,1234.5,1199.7z"/>
		</g>
		<g>
			<path fill="#FFFFFF" d="M2217.7,2046.9c28,0,50.9,22.9,50.9,50.9V2795c0,28-22.9,50.9-50.9,50.9c-541.4,0-611.1,0-1152.5,0
				c-28,0-50.9-22.9-50.9-50.9v-697.2c0-28,22.9-50.9,50.9-50.9C1606.6,2046.9,1676.3,2046.9,2217.7,2046.9z"/>
			<path fill="#4B9ED6" d="M1065.2,2046.9c-28,0-50.9,22.9-50.9,50.9v111.8c575.4,0,679,0,1254.3,0v-111.8c0-28-22.9-50.9-50.9-50.9
				C1676.3,2046.9,1606.6,2046.9,1065.2,2046.9z"/>
			<path fill="#FFFFFF" d="M1966.7,2095.5c21.5,0,43.1,0,64.6,0c43.3,0,43.3,65.5,0,65.5c-21.6,0-43.1,0-64.6,0
				C1923.3,2161,1923.3,2095.5,1966.7,2095.5z M2114.6,2095.5h64.6c43.3,0,43.3,65.5,0,65.5h-64.6
				C2071.3,2161,2071.3,2095.5,2114.6,2095.5z M1821.8,2095.5h64.6c43.3,0,43.3,65.5,0,65.5h-64.6
				C1778.5,2161,1778.5,2095.5,1821.8,2095.5z"/>
			<path fill="#8AD0FF" d="M1501.1,2645.9h280.8c34.6,0,62.7,28.1,62.7,62.7l0,0c0,34.6-28.1,62.7-62.7,62.7h-280.8
				c-34.6,0-62.7-28.1-62.7-62.7l0,0C1438.4,2674,1466.4,2645.9,1501.1,2645.9z"/>
		</g>
		<g>
			<path fill="#FFFFFF" d="M4146.3,2696.8c28,0,50.9,22.9,50.9,50.9v697.2c0,28-22.9,50.9-50.9,50.9c-541.4,0-611.1,0-1152.6,0
				c-28,0-50.9-22.9-50.9-50.9v-697.2c0-28,22.9-50.9,50.9-50.9C3535.2,2696.8,3604.9,2696.8,4146.3,2696.8z"/>
			<path fill="#4B9ED6" d="M2993.7,2696.8c-28,0-50.9,22.9-50.9,50.9v111.8c575.4,0,679,0,1254.3,0v-111.8c0-28-22.9-50.9-50.9-50.9
				C3604.9,2696.8,3535.2,2696.8,2993.7,2696.8z"/>
			<path fill="#FFFFFF" d="M3895.2,2745.4c21.6,0,43.1,0,64.6,0c43.3,0,43.3,65.5,0,65.5c-21.5,0-43.1,0-64.6,0
				C3851.9,2810.9,3851.9,2745.4,3895.2,2745.4z M4043.2,2745.4h64.6c43.3,0,43.3,65.5,0,65.5h-64.6
				C3999.9,2810.9,3999.9,2745.4,4043.2,2745.4z M3750.4,2745.4h64.6c43.3,0,43.3,65.5,0,65.5h-64.6
				C3707.1,2810.9,3707.1,2745.4,3750.4,2745.4z"/>
			<path fill="#8AD0FF" d="M3429.6,3295.8h280.8c34.6,0,62.7,28.1,62.7,62.7l0,0c0,34.6-28.1,62.7-62.7,62.7h-280.8
				c-34.6,0-62.7-28.1-62.7-62.7l0,0C3366.9,3323.9,3395,3295.8,3429.6,3295.8z"/>
		</g>
		<g>
			<path fill="#FFFFFF" d="M4467.5,800.6c28,0,50.9,22.9,50.9,50.9v697.2c0,28-22.9,50.9-50.9,50.9c-541.4,0-611.1,0-1152.5,0
				c-28,0-50.9-22.9-50.9-50.9V851.4c0-28,22.9-50.9,50.9-50.9C3856.3,800.6,3926,800.6,4467.5,800.6z"/>
			<path fill="#4B9ED6" d="M3314.9,800.6c-28,0-50.9,22.9-50.9,50.9v111.8c575.4,0,679,0,1254.3,0V851.4c0-28-22.9-50.9-50.9-50.9
				C3926,800.6,3856.3,800.6,3314.9,800.6L3314.9,800.6z"/>
			<path fill="#FFFFFF" d="M4216.4,849.1c21.5,0,43.1,0,64.6,0c43.3,0,43.3,65.5,0,65.5c-21.6,0-43.1,0-64.6,0
				C4173,914.7,4173,849.1,4216.4,849.1z M4364.3,849.1h64.6c43.3,0,43.3,65.5,0,65.5h-64.6C4321,914.7,4321,849.1,4364.3,849.1z
				 M4071.6,849.1h64.6c43.3,0,43.3,65.5,0,65.5h-64.6C4028.2,914.7,4028.2,849.1,4071.6,849.1z"/>
			<path fill="#8AD0FF" d="M3750.8,1399.5h280.8c34.6,0,62.7,28.1,62.7,62.7l0,0c0,34.6-28.1,62.7-62.7,62.7h-280.8
				c-34.6,0-62.7-28.1-62.7-62.7l0,0C3688.1,1427.6,3716.2,1399.5,3750.8,1399.5z"/>
		</g>
	</g>
	<path fill="#FFFFFF" d="M1559.1,1927.1c27,0,48.8,21.9,48.8,48.8s-21.9,48.8-48.8,48.8s-48.8-21.9-48.8-48.8
		C1510.4,1949,1532.2,1927.1,1559.1,1927.1z M2112,1210.8c17.9,0,32.5,14.6,32.5,32.5c0,18-14.6,32.5-32.5,32.5
		c-18,0-32.5-14.6-32.5-32.5S2094.1,1210.8,2112,1210.8z M2672.9,1108.3c18,0,32.5,14.6,32.5,32.5c0,18-14.6,32.5-32.5,32.5
		s-32.5-14.6-32.5-32.5S2654.9,1108.3,2672.9,1108.3z M3878.5,1755c18.3,0,33.1,14.8,33.1,33.1c0,18.3-14.8,33.1-33.1,33.1
		s-33.1-14.8-33.1-33.1S3860.2,1755,3878.5,1755z M3924.5,2129.8c43.7,0,79.1,35.5,79.1,79.1c0,43.7-35.5,79.1-79.1,79.1
		c-43.7,0-79.1-35.5-79.1-79.1C3845.4,2165.2,3880.8,2129.8,3924.5,2129.8z M4006.6,2929.8c23.1,0,41.8,18.8,41.8,41.8
		c0,23.1-18.8,41.8-41.8,41.8c-23.1,0-41.8-18.8-41.8-41.8S3983.5,2929.8,4006.6,2929.8z M3112.6,2809.4c23.1,0,41.8,18.8,41.8,41.8
		c0,23.1-18.8,41.8-41.8,41.8c-23.1,0-41.8-18.8-41.8-41.8C3070.7,2828.1,3089.5,2809.4,3112.6,2809.4z M2339.7,2809.4
		c17.9,0,32.5,14.6,32.5,32.5s-14.6,32.5-32.5,32.5c-18,0-32.5-14.6-32.5-32.5C2307.2,2823.9,2321.8,2809.4,2339.7,2809.4z
		 M1388.6,2846.2c23.1,0,41.8,18.8,41.8,41.8c0,23.1-18.8,41.8-41.8,41.8c-23.1,0-41.8-18.8-41.8-41.8
		C1346.7,2864.9,1365.5,2846.2,1388.6,2846.2z M1379.9,2024.7c18.3,0,33.1,14.8,33.1,33.1s-14.8,33.2-33.1,33.2
		c-18.2,0-33.2-14.9-33.2-33.2C1346.7,2039.6,1361.6,2024.7,1379.9,2024.7L1379.9,2024.7z"/>
</g>
<g>
	<g id="_2031759885648_2_">
		<path fill="#F04141" d="M3081.4,1528.6c27.1,9.3,36.1,54.1,20.4,100.1c-15.7,46.2-50.3,76.1-77.4,66.8
			c-27.1-9.3-36.1-54.1-20.4-100.3C3019.7,1549.3,3054.4,1519.4,3081.4,1528.6z M2452.3,1528.6c-27.1,9.3-36.1,54.1-20.4,100.1
			c15.7,46.2,50.3,76.1,77.4,66.8c27.1-9.3,36.1-54.1,20.4-100.3C2513.8,1549.3,2479.2,1519.4,2452.3,1528.6z"/>
		<path fill="#E61E2B" d="M2166.2,2169.1c-51.1,149.5-111.3,272.9-183.2,409.2c-63.6,120.8-97.7,254-33.5,374.4
			c64.2,120.4,193.4,191.3,329.3,180.9l117.2-1213C2277.3,1951.1,2205.7,2053.1,2166.2,2169.1L2166.2,2169.1z M3367.6,2169.1
			c51.1,149.5,111.3,272.9,183.2,409.2c63.6,120.8,97.7,254,33.5,374.4c-64.2,120.4-193.4,191.3-329.3,180.9l-117.2-1213
			C3256.5,1951.1,3327.9,2053.1,3367.6,2169.1L3367.6,2169.1z"/>
		<path fill="#4A2727" d="M2448,3063.8l-497.8-140.1c-65.5-18.4-135.9-4.5-189.5,37.5s-83.8,106.9-81.8,174.9
			c7.8,239.4,177.5,442.9,411.7,493.4h676.2h676.2c234.1-50.5,403.9-253.8,411.7-493.4c2.3-67.9-28.2-133.1-81.8-174.9
			c-53.6-42-124-55.8-189.5-37.5L3088.3,3063l-82.1-82.1h-475.4L2448,3063.8z"/>
		<path fill="#301616" d="M2859.3,3484.7c169.2-173.2,373.2-268.8,578.2-393.9c-118.9,55.8-297,171.3-381.6-3.2l-289,103l-289-103
			c-84.8,174.7-262.7,59.1-381.6,3.2c205,125.1,409,220.7,578.2,393.9l92.4,1.5L2859.3,3484.7L2859.3,3484.7z"/>
		<path fill="#E61E2B" d="M2766.9,1843.2c190.8,18.4,213.5,38.8,370.8,77.4l28.8,123l182.5,626.3c31.2,107.1,22.9,221.8-23.5,323.3
			l-139.5,39.9c-52.4,14.8-97.8,47.7-127.9,92.9c-115.1,172.6-475.1,161.4-582.7,0c-30.3-45.2-75.5-78.4-127.9-92.9l-139.5-39.9
			c-46.4-101.4-54.7-216.1-23.5-323.3l182.5-626.3l28.8-123C2553.4,1882,2576.1,1861.5,2766.9,1843.2L2766.9,1843.2z"/>
		<path fill="#D40B18" d="M2766.9,1843.2c188.5,18,212.9,38.4,365.5,76.1c-69.8,95.4-184.2,143.1-230.9,143.1
			c-55.6,0-206.7-67.4-265-202.5C2670.7,1854,2711.8,1848.5,2766.9,1843.2L2766.9,1843.2z"/>
		<path fill="#FF6666" d="M2766.9,1843.2c115.6,11.2,169.6,23.1,229.2,39.4c1.5,10.6,2.5,21.2,2.5,32.2
			c0,124.2-103.7,224.8-231.5,224.8s-231.5-100.7-231.5-224.8c0-11,0.8-21.6,2.5-32.2C2597.3,1866.3,2651.3,1854.4,2766.9,1843.2z"
			/>
		<path fill="#F04141" d="M2766.9,1843.2c115.6,11.2,169.6,23.1,229.2,39.4c1.5,10.6,2.5,21.2,2.5,32.2c0,52-18.2,99.9-48.8,138.2
			c-19.3,6.4-36,9.7-48.3,9.7c-55.6,0-206.7-67.4-265-202.5C2670.7,1854,2711.8,1848.5,2766.9,1843.2L2766.9,1843.2z"/>
		<path fill="#BA0F1A" d="M2452.7,2370.9c-28.4,134.8-90.5,243.4-246.8,248.9c158.2,13.6,272.7,37.9,391,157.7l-35.6-58.7
			C2497.4,2613.3,2442.1,2493.3,2452.7,2370.9z M3081.1,2370.9c28.4,134.8,90.3,243.4,246.8,248.9c-158.2,13.6-272.7,37.9-391,157.7
			l35.6-58.7C3036.4,2613.3,3091.7,2493.3,3081.1,2370.9z"/>
		<path fill="#FFFFFF" d="M2242.4,2697.7c349.6,0,699.1,0,1048.7,0c22.9,0,39.4,18,36.3,39.9l-77,560.8c-3,22-24.2,39.9-47.3,39.9
			c-290.9,0-581.8,0-872.9,0c-23.1,0-44.3-18-47.3-39.9l-77-560.8C2203.1,2715.7,2219.5,2697.7,2242.4,2697.7L2242.4,2697.7z"/>
		<g>
			<path fill="#FFFFFF" d="M2859.3,3484.7l-226.2-61.9c-35.8-9.8-73.1-12.7-109.8-8.3c-31.6,3.6-62.5,12.3-91.2,25.6
				c-13.8,6.2-24,18.2-28.4,32.7c-4.4,14.4-2.3,30.1,5.7,43c24.4,39.7,57.2,73.6,96.1,99.4c25.9,17.2,57,25,87.8,22.1l276.3-7.8
				C2837.5,3583.3,2824.6,3535.4,2859.3,3484.7z"/>
			<path fill="#4A2727" d="M2616,3478.8c4-5.1,2.8-12.5-2.3-16.5c-5.1-4-12.5-2.8-16.5,2.3c-10,13.2-17.6,28.4-22.3,44.7
				c-4.7,16.1-6.8,33.3-5.9,50.9c0.4,6.4,5.9,11.4,12.3,11.2c6.4-0.4,11.4-5.9,11.2-12.3c-0.8-14.8,0.9-29.3,5.1-43
				C2601.5,3502.5,2607.7,3489.8,2616,3478.8L2616,3478.8z M2666.2,3495.1c3.8-5.3,2.5-12.7-2.8-16.3c-5.3-3.8-12.7-2.5-16.3,2.8
				c-9.1,13.1-15.7,27.3-19.3,42.2c-3.8,15-4.7,30.3-2.6,45.6c0.9,6.4,6.8,11,13.2,10s11-6.8,10-13.2c-1.7-12.3-0.9-24.6,2.1-36.7
				C2653.3,3517.4,2658.8,3505.7,2666.2,3495.1L2666.2,3495.1z M2717.9,3509.3c3.8-5.3,2.5-12.7-2.8-16.5
				c-5.3-3.8-12.7-2.5-16.5,2.8c-7.9,11.2-13.8,23.7-17.2,36.7c-3.4,13.1-4.5,26.9-3.2,40.7c0.6,6.4,6.4,11.2,12.9,10.6
				c6.4-0.6,11.2-6.4,10.6-12.9c-1.1-10.8-0.2-21.8,2.5-32.2C2706.9,3528.2,2711.4,3518.2,2717.9,3509.3L2717.9,3509.3z
				 M2772.2,3517.4c3.2-5.5,1.5-12.7-4.2-16.1c-5.5-3.4-12.7-1.5-16.1,4.2c-7.4,12.3-12.3,25.7-14.8,39.7
				c-2.5,13.8-2.5,28.2,0.2,42.4c1.1,6.4,7.4,10.6,13.6,9.5c6.4-1.1,10.6-7.4,9.5-13.6c-2.1-11.4-2.1-22.9,0-34.1
				C2762.2,3538.1,2766.1,3527.3,2772.2,3517.4L2772.2,3517.4z"/>
		</g>
		<ellipse fill="#F7D7D9" cx="2766.9" cy="3018" rx="170.9" ry="106.2"/>
		<path fill="#FF6666" d="M2766.9,1226.7c266.9,0,288.4,237.1,288.4,448.2c0,211.2-218.8,316.5-288.4,316.5
			s-288.3-105.2-288.3-316.5C2478.5,1463.7,2500,1226.7,2766.9,1226.7L2766.9,1226.7z"/>
		<path fill="#FFFFFF" d="M2832.4,1897.9c-17,30.5-52,45.8-65.7,45.8c-13.4,0-48.6-15.3-65.5-45.8H2832.4L2832.4,1897.9z"/>
		<path fill="#4A2727" d="M3054.2,1608.7c26.5-114.5,108.4-260.8-25-331.4l-18.2-50.7c-51.7-143.5-209.9-218-353.5-166.6
			c-127.2,45.6-230,141.6-284.5,265.2c-7.2,16.3-7.6,34.8-1.1,51.5c6.4,16.7,19.3,29.9,35.6,37.1c20.1,68.5,40.1,130,71.7,194.9
			l23.3-143.1c54.5,91.2,397.3,121.5,495.7-74C3018,1488.1,3026,1515,3054.2,1608.7L3054.2,1608.7z"/>
		<path fill="#4A2727" d="M2703.1,1660v-43.9l-24.2-3.4c-32.7-4.5-65.1,0.2-93.1,13.2l8.1,25.7c27.3-1.1,54.9,0.4,82.7,4.4
			L2703.1,1660L2703.1,1660z M2923.2,1689.7c0,37.5-17.6,67.8-39.4,67.8c-21.8,0-39.4-30.3-39.4-67.8H2923.2z M2830.5,1660v-43.9
			l24.2-3.4c32.7-4.5,64.9,0.2,93.1,13.2l-8.1,25.7c-27.3-1.1-54.9,0.4-82.7,4.4L2830.5,1660L2830.5,1660z M2610.6,1689.7
			c0,37.5,17.6,67.8,39.4,67.8c21.8,0,39.4-30.3,39.4-67.8H2610.6L2610.6,1689.7z"/>
		<path fill="#F04141" d="M2766.9,1855.3c24.6,0,44.7-14.6,44.7-7.8c0,6.8-20.1,32.6-44.7,32.6c-24.6,0-44.7-25.7-44.7-32.6
			S2742.3,1855.3,2766.9,1855.3z"/>
		<path fill="#FFFFFF" d="M2892.6,1612.5c31.2,0,59.4,11.4,79.9,29.9c7.9,7.2,14.8,15.5,20.3,24.6l2.1-2.1
			c12.3-12.1,23.8-24.6,34.6-37.7c10.6-12.9,20.6-26.3,29.9-40.5c8.9,14.6,0.6,26.3-9.1,38c-2.6,3.2-5.5,6.6-8.3,9.8
			c-11.2,13.4-22.9,26.3-35.6,38.6l-7.2,7c4.4,11,6.8,22.7,6.8,35c0,28.6-12.9,54.5-33.5,73.1c-20.4,18.5-48.8,29.9-79.9,29.9
			c-31.2,0-59.4-11.4-79.9-29.9c-20.8-18.7-33.5-44.5-33.5-73.1c0-6.1,0.6-12.1,1.7-18h-28c1.1,5.9,1.7,11.9,1.7,18
			c0,28.6-12.9,54.5-33.5,73.1c-20.4,18.5-48.8,29.9-79.9,29.9s-59.4-11.4-79.9-29.9c-20.8-18.7-33.5-44.5-33.5-73.1
			c0-12.3,2.5-24,6.6-35l-7-7c-12.5-12.3-24.4-25.2-35.6-38.6c-2.8-3.2-5.5-6.6-8.3-9.8c-9.7-11.9-18-23.5-9.1-38
			c9.3,14,19.3,27.4,29.9,40.5c10.8,13.1,22.3,25.6,34.6,37.7l2.1,2.1c5.3-9.1,12.1-17.4,20.3-24.6c20.4-18.5,48.8-29.9,79.9-29.9
			c31.2,0,59.4,11.4,79.9,29.9c12.1,11,21.6,24.4,27.4,39.6h36.9c5.7-15.1,15.1-28.6,27.4-39.6
			C2833.1,1623.8,2861.5,1612.5,2892.6,1612.5L2892.6,1612.5z M2962.2,1653.7c-17.8-16.1-42.4-25.9-69.6-25.9
			c-27.3,0-51.9,9.8-69.6,25.9c-17.6,15.9-28.4,37.7-28.4,61.7c0,24,10.8,45.8,28.4,61.7c17.8,16.1,42.4,25.9,69.6,25.9
			c27.3,0,51.9-9.8,69.6-25.9c17.6-15.9,28.4-37.7,28.4-61.7C2990.6,1691.4,2979.8,1669.6,2962.2,1653.7z M2710.7,1653.7
			c-17.8-16.1-42.4-25.9-69.6-25.9s-51.9,9.8-69.6,25.9c-17.6,15.9-28.4,37.7-28.4,61.7c0,24,10.8,45.8,28.4,61.7
			c17.8,16.1,42.4,25.9,69.6,25.9c27.3,0,51.9-9.8,69.6-25.9c17.6-15.9,28.4-37.7,28.4-61.7
			C2739.1,1691.4,2728.3,1669.6,2710.7,1653.7z"/>
	</g>
	<ellipse fill="#593232" cx="2685.9" cy="1339.2" rx="213.1" ry="113.6"/>
</g>
</svg>
