<?xml version="1.0" encoding="utf-8"?>
<svg version="1.0" id="Layer_1" xmlns="http://www.w3.org/2000/svg" xmlns:xlink="http://www.w3.org/1999/xlink" x="0px" y="0px"
	 viewBox="0 0 5333 4000" enable-background="new 0 0 5333 4000" xml:space="preserve">
<g>
	<path fill="#F7CDC1" d="M2666.5,148.3c1426,0,2582,1156,2582,2582c0,316.4-57.1,619.6-161.2,899.7h-156.6h-4355h-330
		c-104.2-280.2-161.2-583.3-161.2-899.7C84.5,1304.3,1240.5,148.3,2666.5,148.3L2666.5,148.3z"/>
	<g>
		<path fill="#FFDFD6" d="M1882.7,491c255.4,49.6,481.6,222.7,587.8,481.4s66.8,540.8-80,755.6c-255.4-49.6-481.6-222.7-587.8-481.4
			C1696.5,987.9,1735.9,705.8,1882.7,491L1882.7,491z M1938.4,639.9c-1.1-2.6,0.2-5.6,2.8-6.7c2.6-1,5.6,0.2,6.7,2.8l69.1,168.3
			l68-162.8c1.1-2.6,4.1-3.8,6.7-2.7c2.6,1.1,3.8,4.1,2.7,6.7l-72,172.2l149.1,363.2l95.1-227.5c1.1-2.6,4.1-3.8,6.7-2.7
			c2.6,1.1,3.8,4.1,2.7,6.7l-99,236.8l130.2,317l68-162.8c1.1-2.6,4.1-3.8,6.7-2.7c2.6,1.1,3.8,4.1,2.7,6.7l-72,172.2l34.5,84.1
			c1.1,2.6-0.2,5.6-2.8,6.7c-2.6,1-5.6-0.2-6.6-2.8l-34.6-84.1l-172.2-72c-2.6-1.1-3.8-4-2.7-6.7c1.1-2.6,4.1-3.8,6.7-2.7
			l162.8,68.1l-130.1-317l-236.9-99c-2.6-1.1-3.8-4.1-2.7-6.7c1.1-2.6,4.1-3.8,6.7-2.7l227.5,95l-149.1-363.2l-172.2-72
			c-2.6-1.1-3.8-4.1-2.7-6.7c1.1-2.6,4.1-3.8,6.7-2.7l162.8,68.1L1938.4,639.9L1938.4,639.9z"/>
		<path fill="#FFDFD6" d="M3450.3,469.7c-255.4,49.6-481.6,222.7-587.8,481.4s-66.8,540.8,80,755.6
			c255.4-49.6,481.7-222.7,587.9-481.4C3636.5,966.6,3597.1,684.5,3450.3,469.7L3450.3,469.7z M3394.6,618.6c1-2.6-0.2-5.6-2.8-6.6
			c-2.6-1.1-5.6,0.2-6.6,2.8l-69.1,168.3L3248,620.3c-1.1-2.6-4.1-3.8-6.7-2.7c-2.6,1.1-3.8,4-2.7,6.7l72,172.2l-149.1,363.2
			l-95-227.5c-1.1-2.6-4.1-3.8-6.7-2.7c-2.6,1.1-3.8,4.1-2.7,6.7l99,236.8L3026,1490l-68-162.8c-1.1-2.6-4.1-3.8-6.7-2.7
			s-3.8,4.1-2.7,6.7l72,172.2l-34.6,84.1c-1.1,2.6,0.2,5.6,2.8,6.6c2.6,1.1,5.6-0.2,6.6-2.8l34.6-84.2l172.2-72
			c2.6-1.1,3.8-4.1,2.7-6.7s-4.1-3.8-6.7-2.7l-162.8,68l130.1-317l236.8-99c2.6-1.1,3.8-4.1,2.7-6.7s-4-3.8-6.7-2.7l-227.5,95
			L3320,800.2l172.2-72c2.6-1.1,3.8-4.1,2.7-6.7s-4.1-3.8-6.7-2.7l-162.8,68L3394.6,618.6L3394.6,618.6z"/>
	</g>
	<path fill="#E8AE9D" d="M418.8,2049.5c309.9-139.3,681.6-125,989.6,70.9c308,196,478.5,526.6,483.6,866.3
		c-38.9,17.5-78.6,32.5-119.2,45.1H1152c-86-26.9-169.9-65.4-249.6-116.1C594.3,2719.8,423.8,2389.2,418.8,2049.5L418.8,2049.5z"/>
	<path fill="#FFFFFF" d="M590.3,2166.5c-3.1-1.9-4-6.1-2-9.2c2-3.1,6.1-4,9.2-2l200.4,127.5l-50-225c-0.8-3.6,1.5-7.1,5.1-7.9
		c3.6-0.8,7.1,1.5,7.9,5l52.9,237.9l432.5,275.2l-69.9-314.2c-0.8-3.6,1.5-7.1,5.1-7.9c3.6-0.8,7.1,1.5,7.9,5.1l72.7,327.2
		l377.5,240.2l-50-225c-0.8-3.6,1.5-7.1,5.1-7.9c3.6-0.8,7.1,1.5,7.9,5.1l52.9,237.9l100.2,63.8c3.1,2,4,6.1,2,9.2
		c-2,3.1-6.1,4-9.2,2l-100.2-63.8l-237.9,52.9c-3.6,0.8-7.1-1.5-7.9-5.1s1.5-7.1,5.1-7.9l225-50l-377.5-240.2l-327.2,72.7
		c-3.6,0.8-7.1-1.5-7.9-5c-0.8-3.6,1.5-7.1,5.1-7.9l314.2-69.9l-432.5-275.2L568.6,2357c-3.6,0.8-7.1-1.5-7.9-5
		c-0.8-3.6,1.5-7.1,5.1-7.9l225-50L590.3,2166.5L590.3,2166.5z"/>
	<path fill="#E8AE9D" d="M4914.2,2049.5c-309.9-139.3-681.5-125-989.6,70.9c-308,196-478.5,526.6-483.6,866.3
		c38.8,17.5,78.6,32.5,119.2,45.1H4181c86-26.9,169.9-65.4,249.6-116.1C4738.7,2719.8,4909.1,2389.2,4914.2,2049.5L4914.2,2049.5z"
		/>
	<path fill="#FFFFFF" d="M4742.7,2166.5c3.1-1.9,4-6.1,2-9.2c-1.9-3.1-6.1-4-9.2-2l-200.4,127.5l50-225c0.8-3.6-1.5-7.1-5-7.9
		c-3.6-0.8-7.1,1.5-7.9,5l-52.9,237.9L4086.8,2568l69.8-314.2c0.8-3.6-1.5-7.1-5-7.9c-3.6-0.8-7.1,1.5-7.9,5.1l-72.7,327.2
		l-377.5,240.2l50-225c0.8-3.6-1.5-7.1-5-7.9c-3.6-0.8-7.1,1.5-7.9,5.1l-52.9,237.9l-100.2,63.8c-3.1,2-4,6.1-2,9.2
		c1.9,3.1,6.1,4,9.2,2l100.2-63.8l237.9,52.9c3.6,0.8,7.1-1.5,7.9-5.1c0.8-3.6-1.5-7.1-5-7.9l-225-50l377.5-240.2l327.2,72.7
		c3.6,0.8,7.1-1.5,7.9-5c0.8-3.6-1.5-7.1-5-7.9l-314.2-69.9l432.5-275.2l237.9,52.9c3.6,0.8,7.1-1.5,7.9-5c0.8-3.6-1.5-7.1-5-7.9
		l-225-50L4742.7,2166.5z"/>
	<path fill="#FFDFD6" d="M998.2,1526.2c44.1,0,79.8,35.7,79.8,79.8c0,44.1-35.7,79.8-79.8,79.8s-79.8-35.7-79.8-79.8
		C918.4,1561.9,954.1,1526.2,998.2,1526.2z M1670.3,637.3c29.4,0,53.1,23.8,53.1,53.1c0,29.4-23.8,53.1-53.1,53.1
		c-29.3,0-53.1-23.8-53.1-53.1C1617.2,661.1,1641,637.3,1670.3,637.3z M3219.6,360.7c29.4,0,53.1,23.8,53.1,53.1
		c0,29.4-23.8,53.1-53.1,53.1s-53.1-23.8-53.1-53.1C3166.4,384.5,3190.2,360.7,3219.6,360.7z M4718.3,1609.7
		c29.9,0,54.1,24.2,54.1,54.1s-24.2,54.2-54.1,54.2s-54.2-24.2-54.2-54.2C4664.1,1633.9,4688.4,1609.7,4718.3,1609.7z
		 M4914.2,2714.2c71.5,0,129.4,57.9,129.4,129.4s-57.9,129.4-129.4,129.4s-129.4-58-129.4-129.4
		C4784.8,2772.2,4842.7,2714.2,4914.2,2714.2z M4249.3,3356.9c37.8,0,68.4,30.7,68.4,68.4s-30.6,68.4-68.4,68.4
		s-68.4-30.6-68.4-68.4S4211.5,3356.9,4249.3,3356.9z M3306.6,3251.6c37.8,0,68.4,30.6,68.4,68.4s-30.7,68.4-68.4,68.4
		s-68.4-30.6-68.4-68.4S3268.8,3251.6,3306.6,3251.6z M2042.7,3251.6c29.3,0,53.1,23.8,53.1,53.1s-23.8,53.1-53.1,53.1
		c-29.4,0-53.1-23.8-53.1-53.1C1989.5,3275.4,2013.3,3251.6,2042.7,3251.6z M1073.4,3362.6c37.8,0,68.4,30.7,68.4,68.4
		c0,37.8-30.6,68.4-68.4,68.4s-68.4-30.6-68.4-68.4C1005,3393.3,1035.6,3362.6,1073.4,3362.6z M297.1,2378.2
		c29.9,0,54.1,24.2,54.1,54.2c0,29.9-24.2,54.1-54.1,54.1s-54.2-24.2-54.2-54.1C243,2402.4,267.2,2378.2,297.1,2378.2L297.1,2378.2z
		"/>
	<path fill="#AD7272" d="M1225.7,1142.3h2881.6c46.3,0,83.8,35.6,83.8,79.6v1873.6c0,43.9-37.5,79.6-83.8,79.6H1225.7
		c-46.3,0-83.8-35.6-83.8-79.6V1221.9C1141.8,1178,1179.4,1142.3,1225.7,1142.3z"/>
	<rect x="1235.9" y="1236.4" fill="#D69C9C" width="2861.1" height="1844.6"/>
	<rect x="2264.4" y="3287.8" fill="#FFFFFF" width="804.1" height="342.2"/>
	<path fill="#AD7272" d="M2666.5,3508.8c346,0,643.6,49.8,775.9,121.2H1890.6C2022.9,3558.6,2320.5,3508.8,2666.5,3508.8z"/>
	<path fill="#965858" d="M2198.7,1709l-79.5,207.7l182.5,40.8l16.5-221.8L2198.7,1709L2198.7,1709z M1803.8,1825.5l90.6,203.1
		l157.9-100.2l-145.1-168.5L1803.8,1825.5L1803.8,1825.5z M1723.3,2582.1l203.1-90.6l-100.2-157.9l-168.5,145.1L1723.3,2582.1
		L1723.3,2582.1z M2560.3,1905.9l-203.1,90.6l100.2,157.9l168.5-145.1L2560.3,1905.9L2560.3,1905.9z M2479.9,2662.5l-90.6-203.1
		l-157.9,100.2l145.2,168.5L2479.9,2662.5L2479.9,2662.5z M1606.8,2187.1l207.7,79.5l40.8-182.5l-221.8-16.5L1606.8,2187.1z
		 M2676.8,2300.9l-207.7-79.5l-40.8,182.5l221.8,16.5L2676.8,2300.9L2676.8,2300.9z M2084.9,2779l79.5-207.7l-182.5-40.8
		l-16.5,221.8L2084.9,2779L2084.9,2779z"/>
	<path fill="#AD7272" d="M2227.7,1859.8L2227.7,1859.8c-212.2-47.5-422.7,86.1-470.1,298.3c-47.5,212.2,86.1,422.7,298.3,470.1
		c212.2,47.5,422.7-86.1,470.2-298.3C2573.5,2117.7,2439.9,1907.2,2227.7,1859.8z M2356.5,2292c-26.5,118.6-144.1,193.2-262.7,166.7
		c-118.6-26.5-193.2-144.1-166.7-262.7s144.1-193.2,262.7-166.7l0,0C2308.4,2055.8,2383,2173.4,2356.5,2292z"/>
	<path fill="#965858" d="M3028.5,1535.4l9.9,222.2l183.6-35.4l-73.4-210L3028.5,1535.4L3028.5,1535.4z M2712.8,1799.7l164.1,150.1
		l104.8-154.9l-200.3-96.6L2712.8,1799.7z M2940.8,2525.6l150.1-164.1L2936,2256.7l-96.6,200.3L2940.8,2525.6z M3438.7,1571.7
		l-150.1,164.2l154.9,104.8l96.6-200.3L3438.7,1571.7z M3666.7,2297.6l-164.1-150.1l-104.8,154.9l200.3,96.6L3666.7,2297.6z
		 M2676.5,2209.9l222.2-9.9l-35.4-183.6l-210,73.4L2676.5,2209.9L2676.5,2209.9z M3703,1887.4l-222.2,9.9l35.4,183.6l210-73.4
		L3703,1887.4L3703,1887.4z M3351,2561.9l-9.9-222.2l-183.6,35.4l73.4,209.9L3351,2561.9L3351,2561.9z"/>
	<path fill="#AD7272" d="M3576.4,1974.1c-41.2-213.5-247.6-353.2-461.2-312.1l0,0c-213.5,41.2-353.2,247.6-312.1,461.1
		c41.2,213.5,247.6,353.3,461.2,312.1C3477.8,2394.1,3617.5,2187.7,3576.4,1974.1z M3231.4,2264.6c-119.3,23-234.6-55.1-257.6-174.4
		c-23-119.3,55.1-234.6,174.4-257.7c119.3-23,234.6,55.1,257.6,174.4C3428.7,2126.3,3350.7,2241.7,3231.4,2264.6z"/>
	<path fill="#FFFFFF" d="M1414.8,1634.2c91.5,113.1,167.5,189.2,307.3,245.8l34.1-54.5c-72.5-61.4-148.3-160.8-196.9-264.3
		L1414.8,1634.2L1414.8,1634.2z M1888.1,1332.1c64,130.6,101.1,231.6,93.6,382.2l-63.8,7.9c-25.2-91.6-83.4-202.3-156.8-289.9
		L1888.1,1332.1z"/>
	<path fill="#FFFFFF" d="M1850,1292.3l-226.1-102.1l-9.4,157.3l122.3,51.3L1850,1292.3L1850,1292.3z M1395.4,1582.5l2.6-248.1
		l146.7,57.6l-5,132.6L1395.4,1582.5z"/>
	<path fill="#F7CDC1" d="M1768.9,1296.8c38.7-24.7,90-13.4,114.7,25.3c24.7,38.7,13.3,90-25.3,114.7c-38.7,24.7-90,13.3-114.7-25.3
		C1718.9,1372.9,1730.2,1321.5,1768.9,1296.8L1768.9,1296.8z M1433.8,1510.7c38.7-24.7,90-13.3,114.7,25.3
		c24.7,38.7,13.3,90-25.3,114.7c-38.7,24.7-90,13.3-114.7-25.3C1383.7,1586.8,1395.1,1535.4,1433.8,1510.7L1433.8,1510.7z"/>
	<path fill="#E8AE9D" d="M1458.5,1549.5c-17.3,11-22.4,34-11.3,51.3s34,22.4,51.3,11.3c17.3-11,22.4-34,11.3-51.3
		C1498.7,1543.5,1475.8,1538.4,1458.5,1549.5z"/>
	<path fill="#E8AE9D" d="M1793.6,1335.6c-17.3,11-22.4,34-11.3,51.3s34,22.4,51.3,11.3c17.3-11,22.4-34,11.3-51.3
		S1810.9,1324.5,1793.6,1335.6z"/>
	<polygon fill="#FFFFFF" points="766.4,1386.3 1502.7,1331.1 1502.7,1193.4 766.4,1138.2 641.1,1262.3 	"/>
	<polygon fill="#FFFFFF" points="551.9,1283.8 981.4,2274.8 1324.1,2204.4 737.1,1254.1 	"/>
	<circle fill="#F7CDC1" cx="641.1" cy="1254.1" r="210.1"/>
	<circle fill="#E8AE9D" cx="641.1" cy="1254.1" r="107.2"/>
	
		<ellipse transform="matrix(0.8429 -0.538 0.538 0.8429 -441.8353 1011.1841)" fill="#F7CDC1" cx="1510.9" cy="1262.3" rx="134" ry="134"/>
	<path fill="#E8AE9D" d="M1476.2,1207.8c30.1-19.2,70-10.4,89.2,19.7s10.4,70-19.7,89.2s-70,10.4-89.2-19.7
		S1446.1,1227,1476.2,1207.8z"/>
	<polygon fill="#FFFFFF" points="319.3,3569.4 989,2256.7 1331.7,2393.3 890.2,3569.4 	"/>
	<circle fill="#F7CDC1" cx="1180" cy="2296.6" r="282.6"/>
	<circle fill="#E8AE9D" cx="1180" cy="2296.6" r="144.1"/>
	<path fill="#E8AE9D" d="M595.1,3508.8c175.7,0,326.8,49.8,394,121.2h-788C268.3,3558.6,419.4,3508.8,595.1,3508.8L595.1,3508.8z"/>
	<polygon fill="#FFFFFF" points="4436.3,1327.9 3750.3,1054.9 3791.5,923.5 4510.6,1091.1 4593,1247 	"/>
	<polygon fill="#FFFFFF" points="4683.9,1260 4343.1,2280.9 3995.3,2243.3 4496.6,1248 	"/>
	
		<ellipse transform="matrix(0.9955 -9.467027e-002 9.467027e-002 0.9955 -96.6606 440.3149)" fill="#F7CDC1" cx="4592.3" cy="1238.9" rx="210.1" ry="210.1"/>
	
		<ellipse transform="matrix(0.9955 -9.466972e-002 9.466972e-002 0.9955 -96.6602 440.3123)" fill="#E8AE9D" cx="4592.3" cy="1238.9" rx="107.2" ry="107.2"/>
	<path fill="#FFFFFF" d="M3908.9,1342.1c-75.3,124.5-140.2,210.2-271,285.3l-41.2-49.4c63.4-70.7,125.1-179.5,159.2-288.6
		L3908.9,1342.1z M3398.9,1107.2c-45.7,138.1-68.7,243.2-40.7,391.4l64.3-0.8c12.5-94.1,55.2-211.7,116-308.5L3398.9,1107.2z"/>
	<path fill="#FFFFFF" d="M3431.2,1062.6l210.2-131.9l30.7,154.6l-114.2,67.4L3431.2,1062.6z M3921.1,1288.3l-36.3-245.4l-137.5,77
		l23,130.6L3921.1,1288.3z"/>
	<path fill="#F7CDC1" d="M3512.2,1056.1c-41.7-19.2-91-1-110.2,40.7s-1,91,40.7,110.2s91,1,110.2-40.7
		C3572.1,1124.6,3553.9,1075.2,3512.2,1056.1z M3873.3,1222.4c-41.7-19.2-91-1-110.2,40.7s-1,91,40.7,110.2s91,1,110.2-40.7
		S3915,1241.6,3873.3,1222.4z"/>
	<path fill="#E8AE9D" d="M3854.1,1264.1c18.6,8.6,26.8,30.6,18.2,49.3c-8.6,18.7-30.6,26.8-49.3,18.2c-18.6-8.6-26.8-30.6-18.2-49.3
		C3813.4,1263.7,3835.4,1255.5,3854.1,1264.1z"/>
	<path fill="#E8AE9D" d="M3493,1097.8c18.6,8.6,26.8,30.6,18.2,49.3c-8.6,18.6-30.6,26.8-49.2,18.2c-18.7-8.6-26.8-30.6-18.2-49.3
		C3452.3,1097.3,3474.3,1089.2,3493,1097.8z"/>
	
		<ellipse transform="matrix(0.4184 -0.9083 0.9083 0.4184 1292.0283 3991.47)" fill="#F7CDC1" cx="3762.8" cy="986.8" rx="134" ry="134"/>
	<path fill="#E8AE9D" d="M3790,928.1c-32.4-14.9-70.8-0.8-85.7,31.7c-14.9,32.4-0.8,70.8,31.7,85.7c32.4,14.9,70.8,0.8,85.7-31.7
		C3836.6,981.4,3822.4,943,3790,928.1z"/>
	<polygon fill="#FFFFFF" points="5013.7,3569.4 4343.8,2296.6 4001.1,2433.2 4442.8,3569.4 	"/>
	<circle fill="#F7CDC1" cx="4158.3" cy="2296.6" r="282.6"/>
	<circle fill="#E8AE9D" cx="4158.3" cy="2296.6" r="144.1"/>
	<path fill="#E8AE9D" d="M4737.9,3508.8c-175.7,0-326.9,49.8-394,121.2H5132C5064.7,3558.6,4913.6,3508.8,4737.9,3508.8z"/>
	<path fill="#E6AFAF" d="M3019,2597.9l-21.2,55.5c-18.9-0.1-37.3,3.2-54.6,9.5l-38.8-45l-40.6,25.8l24.2,54.3
		c-13.1,12.8-23.9,28.1-31.9,45.3l-59.2-4.4l-10.5,46.9l55.5,21.2c-0.2,18.9,3.2,37.3,9.5,54.5l-45,38.8l25.8,40.6l54.3-24.2
		c12.8,13,28.1,23.9,45.3,31.8l-4.4,59.3l46.9,10.5l21.2-55.5c18.9,0.1,37.3-3.2,54.6-9.5l38.8,45l40.6-25.8l-24.2-54.3
		c13-12.8,23.9-28.1,31.8-45.3l59.2,4.4l10.5-46.9l-55.5-21.2c0.1-18.9-3.2-37.3-9.5-54.5l45-38.8l-25.8-40.6l-54.2,24.2
		c-12.8-13-28.1-23.9-45.3-31.9l4.4-59.2L3019,2597.9z M3015.5,2723.7c46.6,10.4,75.9,56.6,65.5,103.2
		c-10.4,46.6-56.6,75.9-103.2,65.5c-46.6-10.4-75.9-56.6-65.5-103.2C2922.8,2742.6,2969,2713.3,3015.5,2723.7z"/>
	<path fill="#E6AFAF" d="M2286.5,1253.7l-21.2,55.5c-18.9-0.1-37.4,3.2-54.6,9.5l-38.8-45l-40.6,25.8l24.2,54.2
		c-13,12.8-23.9,28.1-31.8,45.3l-59.2-4.4l-10.5,46.9l55.5,21.2c-0.1,18.9,3.2,37.3,9.5,54.5l-45,38.8l25.8,40.6l54.2-24.2
		c12.8,13.1,28.1,23.9,45.3,31.9l-4.4,59.2l46.9,10.5l21.2-55.5c18.9,0.1,37.3-3.2,54.5-9.5l38.8,45l40.6-25.8l-24.2-54.3
		c13.1-12.8,23.9-28.1,31.9-45.3l59.2,4.4l10.5-46.9l-55.5-21.2c0.2-18.9-3.2-37.4-9.5-54.6l45-38.8l-25.8-40.6l-54.3,24.2
		c-12.8-13-28.1-23.9-45.3-31.8l4.4-59.2L2286.5,1253.7z M2283,1379.6c46.6,10.4,75.9,56.6,65.5,103.2s-56.6,75.9-103.2,65.5
		c-46.6-10.4-75.9-56.6-65.5-103.2C2190.3,1398.5,2236.5,1369.2,2283,1379.6z"/>
	<path fill="#E6AFAF" d="M1532.5,2689l-13.4,35.1c-12-0.1-23.6,2-34.5,6l-24.5-28.4l-25.7,16.3l15.3,34.3
		c-8.3,8.1-15.1,17.8-20.1,28.6l-37.4-2.8l-6.6,29.6l35.1,13.4c-0.1,11.9,2,23.6,6,34.5l-28.4,24.5l16.3,25.6l34.3-15.3
		c8.1,8.3,17.8,15.1,28.6,20.1l-2.8,37.4l29.6,6.6l13.4-35.1c12,0.1,23.6-2,34.5-6l24.5,28.5l25.6-16.3l-15.3-34.3
		c8.3-8.1,15.1-17.8,20.1-28.6l37.4,2.8l6.6-29.6l-35.1-13.4c0.1-11.9-2-23.6-6-34.4l28.5-24.5l-16.3-25.7l-34.3,15.3
		c-8.1-8.2-17.8-15.1-28.6-20.1l2.8-37.4L1532.5,2689L1532.5,2689z M1530.3,2768.5c29.4,6.6,48,35.8,41.4,65.2s-35.8,48-65.2,41.4
		c-29.4-6.6-48-35.8-41.4-65.2C1471.7,2780.4,1500.9,2761.9,1530.3,2768.5L1530.3,2768.5z"/>
	<path fill="#E6AFAF" d="M3775.8,2477.1l-13.4,35.1c-12-0.1-23.6,2-34.5,6l-24.5-28.4l-25.7,16.3l15.3,34.3
		c-8.2,8.1-15.1,17.8-20.1,28.6l-37.4-2.8l-6.6,29.6l35.1,13.4c-0.1,11.9,2,23.6,6,34.4l-28.4,24.5l16.3,25.7l34.3-15.3
		c8.1,8.3,17.8,15.1,28.6,20.1l-2.8,37.4l29.6,6.6l13.4-35.1c11.9,0.1,23.6-2,34.5-6l24.5,28.4l25.6-16.3l-15.3-34.3
		c8.3-8.1,15.1-17.8,20.1-28.6l37.4,2.8l6.6-29.6l-35.1-13.4c0.1-11.9-2-23.6-6-34.5l28.5-24.5l-16.3-25.6l-34.3,15.3
		c-8.1-8.3-17.8-15.1-28.6-20.1l2.8-37.4L3775.8,2477.1z M3773.6,2556.7c29.4,6.6,48,35.7,41.4,65.2c-6.6,29.4-35.8,48-65.2,41.4
		s-48-35.7-41.4-65.2C3715,2568.6,3744.2,2550.1,3773.6,2556.7L3773.6,2556.7z"/>
	<g>
		<path fill="#FFFFFF" d="M2666.5,79.3c268.7,0,486.6,217.8,486.6,486.6c0,180.3-98.1,337.6-243.7,421.7v181.2
			c0,42.8-35,77.8-77.8,77.8h-330.1c-42.8,0-77.8-35-77.8-77.8V987.5C2278,903.5,2180,746.1,2180,565.8
			C2180,297.1,2397.8,79.3,2666.5,79.3L2666.5,79.3z"/>
		<circle fill="#FFFFFF" cx="2666.5" cy="1481.7" r="59.1"/>
		<rect x="2501.5" y="1246.5" fill="#AD7272" width="330.1" height="194.8"/>
		<polygon fill="#965858" points="2593.8,1512.5 2739.2,1512.5 2831.5,1441.3 2501.5,1441.3 		"/>
		<path fill="#D69C9C" d="M2487.1,1295.9l358.8-20.5v37.5l-358.8,20.5V1295.9L2487.1,1295.9z M2487.1,1375l358.8-20.5v37.5
			l-358.8,20.5V1375L2487.1,1375z"/>
		<path fill="#FFDFD6" d="M2572.6,1246.5V621.2h-102.3c-7.4,0-14.8-0.6-22.2-1.9c-37.2-6.2-66.1-27.3-85.6-55.6
			c-18.5-26.8-28.3-60-28.3-92.3c0-8.5,0.8-17.1,2.2-26c6.6-39.6,27.8-73.3,57.3-96.2c29.5-23,67.4-35.2,107.3-31.9
			c39.9,3.3,75.2,21.7,100.6,49.2c25.4,27.6,40.8,64.3,40.8,104.3v80.8h48.5v-80.8c0-40,15.4-76.7,40.7-104.3
			c25.4-27.6,60.7-45.9,100.6-49.2c39.9-3.3,77.8,9,107.3,31.9c29.5,23,50.7,56.7,57.3,96.2c1.5,8.8,2.2,17.5,2.2,26
			c0,32.3-9.8,65.5-28.3,92.3c-19.5,28.2-48.4,49.4-85.6,55.6c-7.4,1.2-14.8,1.9-22.2,1.9h-102.4v625.3h-69.6V621.2h-48.5v625.3
			H2572.6L2572.6,1246.5z M2572.6,551.5v-80.8c0-22-8.4-42.1-22.3-57.2s-33.2-25.1-55.1-26.9c-21.9-1.8-42.7,4.9-58.9,17.5
			s-27.9,31.1-31.5,52.7c-0.7,4.5-1.1,9.4-1.1,14.6c0,18.9,5.5,37.9,15.8,52.9c9.4,13.5,22.9,23.6,39.9,26.4
			c3.1,0.5,6.7,0.8,10.8,0.8L2572.6,551.5L2572.6,551.5z M2760.4,551.5h102.4c4,0,7.6-0.3,10.8-0.8c17-2.8,30.5-12.9,39.9-26.4
			c10.3-15,15.8-34,15.8-52.9c0-5.2-0.3-10.1-1.1-14.6c-3.6-21.6-15.2-40.1-31.4-52.7s-37-19.3-58.9-17.5
			c-21.9,1.8-41.3,11.9-55.2,26.9c-13.8,15.1-22.3,35.2-22.3,57.2V551.5L2760.4,551.5z"/>
	</g>
</g>
<g id="_2250713601872_2_">
	<path fill="#FFFFFF" d="M3064.4,2406.8c9.3,133.5,65.3,213.2,120.8,327.5c29.9,61.7,21.2,135.3-22.5,188.3
		c-43.7,53-114.3,75.6-180.6,58c-66.3-17.7-116.3-72.4-127.9-140.1l-76.4-202.6L3064.4,2406.8L3064.4,2406.8z"/>
	<path fill="#F55656" d="M3221.4,2780.8l218.1,148.6c43.8,35.3,34.7,110.9-23.5,99.4c-130.9,26.7-418.5,10.5-414.7-129.6
		C3004.5,2794.2,3113.7,2707.4,3221.4,2780.8z"/>
	<path fill="#181826" d="M1972.6,3006.9c-51.5-17-107.3-6.3-150.8,29c-23.1,18.8-39.6,46-46.5,76.9c-9.1,40.6-2.4,83.8,18.6,118.5
		c20.6,33.9,44.2,65.3,70.7,93.6c213.4,227.9,501.8,346.9,796.5,328.5c294.7,18.4,583.2-100.6,796.5-328.5
		c26.5-28.3,50.3-59.6,70.7-93.6c21.1-34.7,27.8-77.9,18.6-118.5c-6.9-31-23.4-58.1-46.5-76.9c-43.4-35.3-99.2-46.1-150.8-29
		c-164.7,54.4-307.2,80.1-466.1,122.2v-68.3h-445v68.3C2279.8,3086.9,2137.4,3061.3,1972.6,3006.9L1972.6,3006.9z"/>
	<g>
		<path fill="#F55656" d="M3392.2,2937.4l3.5-20.7c5.5-33.2,34.4-57.5,68.3-57.1c20.8,0.3,40.9-8.2,55.1-23.5
			c3.2-3.3,7.8-4.6,12.3-3.3c4.4,1.3,7.7,5,8.5,9.5c2.1,11.6-1.5,23.4-9.8,31.9c-8.2,8.5-19.9,12.5-31.5,10.9
			c-9.4-1.3-18.4,4-22,12.7l69.8,22.6l26.2-23.3l-5.3-23.3l-10.4-3.5c-6-2.2-10.9-6.8-13.6-12.6c-2.7-5.8-2.8-12.6-0.6-18.5
			c2.8-7.5,11.1-11.2,18.5-8.5l28.5,13.1c5.7,2.6,10.2,7.5,12,13.5l11.3,37.3c3.2,10.4,0,21.7-4.6,27.2l-79.7,96.9
			c-13.1,15.2-35.5,18.4-52.4,7.7l-79-24.3c-13.8-4.2-23.5-16.5-24.6-30.7C3371.6,2957.2,3390.8,2945.6,3392.2,2937.4L3392.2,2937.4
			z"/>
		<path fill="#FF6666" d="M3546.4,2920.4l26.2-23.3l-5.3-23.3l-10.4-3.5c-6-2.2-10.9-6.8-13.6-12.6c-2.7-5.8-2.8-12.6-0.6-18.5
			c2.8-7.5,11.1-11.2,18.5-8.5l28.5,13.1c5.7,2.6,10.2,7.5,12,13.5l11.3,37.3c3.2,10.4,0,21.7-4.6,27.2l-28.7,34.7
			c-8.9,8.6-22.8,9.1-32.1,1.3c-9.5-7.8-11.6-21.5-4.9-31.9L3546.4,2920.4L3546.4,2920.4z"/>
		<path fill="#FF7D7D" d="M3512.4,2957.2l26.2-23.3l-5.3-23.3l-10.4-3.5c-6-2.2-10.9-6.8-13.6-12.6c-2.7-5.9-2.8-12.6-0.6-18.6
			c2.8-7.5,11.1-11.2,18.5-8.5l28.5,13.1c5.7,2.6,10.2,7.5,12,13.5l11.4,37.3c3.2,10.5-0.1,21.7-4.6,27.2l-28.7,34.7
			c-8.9,8.6-22.8,9.1-32.1,1.3c-9.5-7.8-11.6-21.5-4.9-31.9L3512.4,2957.2L3512.4,2957.2z"/>
		<path fill="#FF7D7D" d="M3492.8,2987.2l26.2-23.3l-5.3-23.3l-10.4-3.5c-6-2.2-10.9-6.8-13.6-12.6c-2.7-5.9-3-12.6-0.6-18.6
			c2.8-7.5,11.1-11.2,18.5-8.5l28.5,13.1c5.7,2.6,10.2,7.5,12,13.5l11.4,37.3c3.2,10.4,0,21.7-4.6,27.2l-28.7,34.7
			c-8.9,8.6-22.6,9.1-32.1,1.3c-9.5-7.8-11.6-21.5-4.9-31.9L3492.8,2987.2L3492.8,2987.2z"/>
		<path fill="#FF7D7D" d="M3491.7,2993.4l22.5-19.9l-4.5-20.1l-9-3c-5.1-1.9-9.4-5.8-11.7-10.8c-2.3-5-2.4-10.8-0.5-15.9
			c2.4-6.3,9.5-9.6,15.8-7.3l24.6,11.2c4.9,2.2,8.6,6.4,10.3,11.6l9.8,32c2.7,9,0,18.6-4,23.4l-24.6,29.8
			c-7.6,7.3-19.4,7.8-27.6,1.2c-8.2-6.7-10-18.5-4.2-27.4L3491.7,2993.4L3491.7,2993.4z"/>
	</g>
	<path fill="#854848" d="M2622.1,3495.5l-25.8-6.7c-54.4-14.3-109.1-27.4-164.1-39.6c-25.8-5.8-53.1-5.7-79.2,0.4
		c-16.1,3.7-29.7,13.6-37.3,27.1s-8.1,29.2-1.5,42.7c16.6,34.6,37.7,67.1,62.9,96.8c40.5,47.8,107.5,70.4,173.9,58.9
		c54.1-9.4,108.1-18.9,162.1-28.4c20.7-3.7,37.1-18.4,41.6-37l-61.1,9.1l-32.5-6.6l-17.2-102.3L2622.1,3495.5L2622.1,3495.5z"/>
	<path fill="#FFFFFF" d="M2686.8,3491.2l-23.4,1.3c-19.3,1-38.4,0.5-57.6-1.5c55.3,33.9,55.3,90.7-11.2,148.5
		c35.5-4,70.4-11.3,104.5-21.6C2651.1,3601.4,2647,3515.5,2686.8,3491.2z"/>
	<path fill="#471C1C" d="M2925.9,3581.7c-6.3,9.5-13,18.8-19.8,27.8c-40.5,52.8-107.5,77.9-173.9,65.2
		c-30.2-5.8-60.4-11.7-90.6-17.5l59.8-11.6C2777.6,3630.7,2852.7,3609.4,2925.9,3581.7L2925.9,3581.7z M2557.8,3639.3
		c-2.6-1.3-5.1-2.7-7.5-4.4L2557.8,3639.3z"/>
	<path fill="#FFFFFF" d="M2258,2406.8c-9.3,133.5-65.4,213.2-120.8,327.5c-29.9,61.7-21.2,135.3,22.5,188.3
		c43.7,53,114.3,75.6,180.6,58c66.3-17.7,116.3-72.4,127.8-140.1l76.4-202.6L2258,2406.8L2258,2406.8z"/>
	<path fill="#F55656" d="M2101,2780.8l-218.1,148.6c-43.8,35.3-34.7,110.9,23.5,99.4c130.8,26.7,418.5,10.5,414.7-129.6
		C2317.9,2794.2,2208.7,2707.4,2101,2780.8z"/>
	<g>
		<path fill="#F55656" d="M1930.2,2937.4l-3.5-20.7c-5.5-33.2-34.6-57.5-68.3-57.1c-20.8,0.3-40.9-8.2-55.1-23.5
			c-3.1-3.3-7.8-4.6-12.3-3.3c-4.4,1.3-7.7,5-8.5,9.5c-2.1,11.6,1.5,23.4,9.8,31.9c8.2,8.5,19.9,12.5,31.5,10.9
			c9.4-1.3,18.4,4,22,12.7l-69.8,22.6l-26.2-23.3l5.3-23.3l10.4-3.5c6-2.2,10.9-6.8,13.6-12.6c2.7-5.8,3-12.6,0.6-18.5
			c-2.8-7.5-11.1-11.2-18.5-8.5l-28.5,13.1c-5.7,2.6-10.2,7.5-12,13.5l-11.4,37.3c-3.2,10.4,0,21.7,4.6,27.2l79.8,96.9
			c13.1,15.2,35.5,18.4,52.4,7.7l79-24.3c13.8-4.2,23.5-16.5,24.6-30.7C1950.8,2957.2,1931.6,2945.6,1930.2,2937.4z"/>
		<path fill="#FF6666" d="M1776,2920.4l-26.2-23.3l5.3-23.3l10.4-3.5c6-2.2,10.9-6.8,13.6-12.6s3-12.6,0.6-18.5
			c-2.8-7.5-11.1-11.2-18.5-8.5l-28.5,13.1c-5.7,2.6-10.2,7.5-12,13.5l-11.4,37.3c-3.2,10.4,0,21.7,4.6,27.2l28.7,34.7
			c8.9,8.6,22.6,9.1,32.1,1.3c9.5-7.8,11.6-21.5,4.9-31.9L1776,2920.4L1776,2920.4z"/>
		<path fill="#FF7D7D" d="M1810,2957.2l-26.2-23.3l5.3-23.3l10.4-3.5c6-2.2,10.9-6.8,13.6-12.6c2.7-5.9,3-12.6,0.6-18.6
			c-2.8-7.5-11.1-11.2-18.5-8.5l-28.5,13.1c-5.7,2.6-10.2,7.5-12,13.5l-11.4,37.3c-3.2,10.5,0,21.7,4.6,27.2l28.7,34.7
			c8.9,8.6,22.6,9.1,32.1,1.3c9.5-7.8,11.6-21.5,4.9-31.9L1810,2957.2L1810,2957.2z"/>
		<path fill="#FF7D7D" d="M1829.6,2987.2l-26.2-23.3l5.3-23.3l10.4-3.5c6-2.2,10.9-6.8,13.6-12.6c2.7-5.9,2.8-12.6,0.6-18.6
			c-2.8-7.5-11.1-11.2-18.5-8.5l-28.5,13.1c-5.7,2.6-10.2,7.5-12,13.5l-11.4,37.3c-3.2,10.4,0.1,21.7,4.6,27.2l28.7,34.7
			c8.9,8.6,22.8,9.1,32.1,1.3c9.5-7.8,11.6-21.5,4.9-31.9L1829.6,2987.2L1829.6,2987.2z"/>
		<path fill="#FF7D7D" d="M1830.7,2993.4l-22.5-19.9l4.5-20.1l9-3c5.1-1.9,9.4-5.8,11.7-10.8c2.3-5,2.4-10.8,0.5-15.9
			c-2.4-6.3-9.5-9.6-15.9-7.3l-24.6,11.2c-4.9,2.2-8.6,6.4-10.3,11.6l-9.8,32c-2.7,9,0,18.6,4,23.4l24.6,29.8
			c7.6,7.3,19.5,7.8,27.6,1.2c8.1-6.7,9.9-18.5,4.2-27.4L1830.7,2993.4L1830.7,2993.4z"/>
	</g>
	<path fill="#FFFFFF" d="M2223.6,2509.6c-15,140.6,90.5,269.5,165,400.5l-35.2,180.9l276.6,152.4l31.1-132.1l31.1,132.1l276.6-152.4
		l-35.2-180.9c74.6-131,180-260,165-400.5c-11.1-103.7-58.7-164.4-116.5-179.1l-201.5-51l-7.6-51.9h-112h-112l-7.6,51.9l-201.5,51
		C2282.3,2345.2,2234.7,2405.9,2223.6,2509.6L2223.6,2509.6z"/>
	<polygon fill="#E65050" points="2564.5,2042.9 2757.9,2042.9 2757.9,2245.8 2661.3,2281.6 2564.5,2245.8 	"/>
	<g>
		<path fill="#E65050" d="M2826.6,1931.6c23.7,4.4,37.4,37.1,30.7,73.4c-6.7,36.2-31.1,62.1-54.8,57.7
			c-23.7-4.4-37.4-37.1-30.7-73.4C2778.5,1953.2,2803,1927.2,2826.6,1931.6L2826.6,1931.6z M2495.8,1931.6
			c-23.7,4.4-37.4,37.1-30.7,73.4c6.7,36.2,31.1,62.1,54.8,57.7c23.7-4.4,37.4-37.1,30.7-73.4
			C2543.9,1953.2,2519.4,1927.2,2495.8,1931.6L2495.8,1931.6z"/>
		<path fill="#FF6666" d="M2487.7,1842.2h347v235.2c0,95.4-102.7,173.5-173.5,173.5c-70.8,0-173.5-78.2-173.5-173.5V1842.2z"/>
		<path fill="#FFFFFF" d="M2728,2136.7c-1.4,35.9-40.1,64.8-66.8,64.8s-65.4-28.9-66.8-64.8H2728L2728,2136.7z"/>
		<path fill="#333333" d="M2487.7,2017.8l-36.5-155c-10.7-45.4,12.7-91.9,55.7-110.3l17.4-20.3c34.2-39.8,84.4-62.2,137-60.9
			c52.4-1.4,102.8,21,137,60.9l17.4,20.3c42.8,18.4,66.3,64.9,55.7,110.3l-36.5,155l-20.6-155c-31.5,29.7-73.1,46.3-116.5,46.3
			h-36.5h-36.5c-43.3,0-85-16.6-116.5-46.3L2487.7,2017.8z"/>
		<path fill="#333333" d="M2699.6,1961.5v-30.3l47.4,7.7c14,2.3,26.6,9.8,35.2,21.1l-9.1,11.2c-9.4-3.9-19.4-6.3-29.7-6.9
			L2699.6,1961.5L2699.6,1961.5z"/>
		<ellipse fill="#333333" cx="2731.1" cy="2013.2" rx="23.9" ry="30.5"/>
		<path fill="#333333" d="M2622.8,1961.5v-30.3l-47.4,7.7c-14,2.3-26.5,9.8-35.2,21.1l9.1,11.2c9.4-3.9,19.4-6.3,29.7-6.9
			L2622.8,1961.5L2622.8,1961.5z"/>
		<ellipse fill="#333333" cx="2591.3" cy="2013.2" rx="23.9" ry="30.5"/>
		<path fill="#E65050" d="M2661.3,2093.5c17.9,0,32.3-9.9,32.3-1.9c0,7.8-14.4,37.1-32.3,37.1s-32.3-29.3-32.3-37.1
			C2629,2083.6,2643.4,2093.5,2661.3,2093.5z"/>
	</g>
	<path fill="#4FABE8" d="M2661.3,3378.1l121.6-168.8c-54.9-84.1-89.7-631.2-104.9-773.3l22.9-29.3l-16.8-64.4l-22.8,6l-22.8-6
		l-16.8,64.4l22.9,29.3c-17,159.5-49.2,660.4-104.9,773.3L2661.3,3378.1L2661.3,3378.1z"/>
</g>
</svg>
